<svg width="26" height="26" viewBox="0 0 26 26" fill="none" xmlns="http://www.w3.org/2000/svg">
<path d="M7.68182 0C3.4462 0 0 3.4462 0 7.68182V18.3182C0 22.5538 3.4462 26 7.68182 26H18.3182C22.5538 26 26 22.5538 26 18.3182V7.68182C26 3.4462 22.5538 0 18.3182 0H7.68182ZM7.68182 1.18182H18.3182C21.9144 1.18182 24.8182 4.08558 24.8182 7.68182V18.3182C24.8182 21.9144 21.9144 24.8182 18.3182 24.8182H7.68182C4.08558 24.8182 1.18182 21.9144 1.18182 18.3182V7.68182C1.18182 4.08558 4.08558 1.18182 7.68182 1.18182ZM20.0909 4.72727C19.4377 4.72727 18.9091 5.25586 18.9091 5.90909C18.9091 6.56232 19.4377 7.09091 20.0909 7.09091C20.7441 7.09091 21.2727 6.56232 21.2727 5.90909C21.2727 5.25586 20.7441 4.72727 20.0909 4.72727ZM13 6.5C9.41761 6.5 6.5 9.41761 6.5 13C6.5 16.5824 9.41761 19.5 13 19.5C16.5824 19.5 19.5 16.5824 19.5 13C19.5 9.41761 16.5824 6.5 13 6.5ZM13 7.68182C15.9442 7.68182 18.3182 10.0558 18.3182 13C18.3182 15.9442 15.9442 18.3182 13 18.3182C10.0558 18.3182 7.68182 15.9442 7.68182 13C7.68182 10.0558 10.0558 7.68182 13 7.68182Z" fill="white" fill-opacity="0.5"/>
</svg>
