<svg width="45" height="44" viewBox="0 0 45 44" fill="none" xmlns="http://www.w3.org/2000/svg">
<path d="M13.83 0C6.66199 0 0.829956 5.83203 0.829956 13V31C0.829956 38.168 6.66199 44 13.83 44H31.83C38.9979 44 44.83 38.168 44.83 31V13C44.83 5.83203 38.9979 0 31.83 0H13.83ZM13.83 2H31.83C37.9159 2 42.83 6.91406 42.83 13V31C42.83 37.0859 37.9159 42 31.83 42H13.83C7.74402 42 2.82996 37.0859 2.82996 31V13C2.82996 6.91406 7.74402 2 13.83 2ZM34.83 8C33.7245 8 32.83 8.89453 32.83 10C32.83 11.1055 33.7245 12 34.83 12C35.9354 12 36.83 11.1055 36.83 10C36.83 8.89453 35.9354 8 34.83 8ZM22.83 11C16.7675 11 11.83 15.9375 11.83 22C11.83 28.0625 16.7675 33 22.83 33C28.8925 33 33.83 28.0625 33.83 22C33.83 15.9375 28.8925 11 22.83 11ZM22.83 13C27.8124 13 31.83 17.0176 31.83 22C31.83 26.9824 27.8124 31 22.83 31C17.8475 31 13.83 26.9824 13.83 22C13.83 17.0176 17.8475 13 22.83 13Z" fill="#34495E"/>
</svg>
