<svg width="45" height="45" viewBox="0 0 45 45" fill="none" xmlns="http://www.w3.org/2000/svg">
<path d="M41.6883 0.225945C41.2016 0.249585 40.7267 0.397871 40.2987 0.58699C39.8746 0.77396 37.4374 1.91727 33.8373 3.61074C30.2372 5.30421 25.5582 7.50701 20.9184 9.69262C11.6406 14.0638 2.52312 18.3641 2.52312 18.3641L2.58957 18.3362C2.58957 18.3362 2.03841 18.5382 1.4814 18.9659C1.20191 19.1786 0.902881 19.4559 0.656621 19.8577C0.41036 20.2596 0.230551 20.8291 0.298956 21.433C0.537399 23.5498 2.53289 24.1516 2.53289 24.1516L2.54071 24.1559L11.4491 27.5084C11.6758 28.3423 14.1501 37.4243 14.6954 39.3477C14.9964 40.4115 15.2778 41.024 15.571 41.443C15.7176 41.6515 15.872 41.8148 16.042 41.933C16.1104 41.9803 16.1808 42.0147 16.2512 42.0469C16.2531 42.0469 16.2531 42.0469 16.2551 42.0469C16.2629 42.0512 16.2727 42.0512 16.2805 42.0555L16.257 42.0491C16.2727 42.0555 16.2902 42.0684 16.3059 42.0749C16.3372 42.0878 16.3567 42.0856 16.3977 42.0964C17.418 42.4875 18.2623 41.7611 18.2623 41.7611L18.2975 41.731L23.7699 36.1499L32.6509 43.764L32.7623 43.8199C34.3161 44.5785 35.7233 44.1552 36.5012 43.4589C37.2791 42.7626 37.5859 41.8643 37.5859 41.8643L37.6191 41.7697L44.145 4.36936C44.3112 3.53337 44.3366 2.80913 44.1783 2.15581C44.02 1.5025 43.6388 0.93514 43.158 0.619226C42.6772 0.303312 42.175 0.202306 41.6883 0.225945ZM41.7411 2.46313C41.9385 2.45239 42.085 2.47818 42.132 2.50826C42.1789 2.53835 42.1984 2.53405 42.2434 2.71887C42.2883 2.90369 42.3118 3.29053 42.1906 3.89871L42.1867 3.91161L35.6979 41.0949C35.6823 41.1314 35.5474 41.4753 35.2386 41.7525C34.924 42.034 34.5741 42.2532 33.6438 41.8256L23.9321 33.4979L23.6585 33.2615L23.6527 33.268L20.7483 30.8717L37.0699 9.75709C37.326 9.42613 37.3807 8.96193 37.2107 8.56865C37.0406 8.17752 36.6771 7.93253 36.2823 7.94327C36.0927 7.94972 35.909 8.01204 35.7526 8.12809L12.1351 25.441L3.21304 22.082C3.21304 22.082 2.32767 21.5405 2.28468 21.1622C2.28272 21.1407 2.27099 21.1601 2.3179 21.0849C2.36481 21.0096 2.48012 20.8828 2.62475 20.7711C2.91401 20.5497 3.24626 20.4143 3.24626 20.4143L3.27949 20.4015L3.31272 20.3864C3.31272 20.3864 12.4302 16.0861 21.708 11.7149C26.3459 9.52929 31.0248 7.32649 34.6249 5.63517C38.2231 3.94384 40.8225 2.72532 41.0433 2.62861C41.2935 2.51901 41.5437 2.47388 41.7411 2.46313ZM30.9173 14.3174L18.5398 30.3302L18.534 30.3366C18.5144 30.3624 18.4968 30.3882 18.4792 30.4161C18.4597 30.4462 18.4421 30.4763 18.4245 30.5086C18.3541 30.6375 18.3111 30.7815 18.2936 30.9319C18.2936 30.9341 18.2936 30.9384 18.2936 30.9405L16.6811 38.9136C16.6538 38.8276 16.6362 38.7954 16.6069 38.6944V38.6922C16.0948 36.8827 13.7592 28.3165 13.4368 27.1324L30.9173 14.3174ZM19.9372 32.9542L22.1614 34.7895L18.8936 38.1206L19.9372 32.9542Z" fill="#34495E"/>
</svg>
