<svg width="25" height="28" viewBox="0 0 25 28" fill="none" xmlns="http://www.w3.org/2000/svg">
<path d="M12.1584 0.000618458C11.3469 0.00537379 10.5331 0.0553049 9.71234 0.157544C8.14288 0.35489 6.58737 0.683008 5.09464 1.38442C2.72069 2.49954 1.0373 4.39217 0.549021 7.14312C0.342085 8.30342 0.174676 9.48037 0.0793459 10.6644C-0.104339 12.9636 0.00959214 15.27 0.646677 17.5359C1.1489 19.3215 2.0743 20.9264 3.69492 21.9679C4.38083 22.4077 5.2853 22.6217 5.7573 22.8452C5.88983 22.9094 5.92239 22.9475 5.92936 22.957C5.93634 22.9641 5.95494 22.9807 5.95261 23.1234C5.93634 24.5785 5.95261 27.3937 5.95261 27.3937L5.95494 28H7.01752L7.18958 27.8288C7.18958 27.8288 9.88905 25.173 10.8656 24.0792C11.0423 23.8843 11.133 23.7749 11.1516 23.763C11.1679 23.7511 11.14 23.744 11.3213 23.7392C12.6025 23.7131 13.8813 23.6631 15.1601 23.5918C16.8458 23.4967 18.5641 23.3326 20.2173 22.6265C21.6565 22.0107 22.8586 21.0049 23.5864 19.4975C24.3304 17.952 24.728 16.3138 24.8768 14.6185C25.1233 11.7962 25.0372 8.96917 24.2746 6.18255C23.8259 4.54909 22.9237 3.16767 21.5403 2.19283C19.8848 1.02777 18.0177 0.590279 16.1901 0.312093C15.1229 0.150412 14.0487 0.0434164 12.9698 0.0101291C12.7001 0.00299597 12.4304 -0.00175905 12.1584 0.000618458ZM12.9373 1.22749C13.9627 1.25603 14.9881 1.35827 16.0158 1.51519C17.7782 1.78387 19.4407 2.19283 20.866 3.1962C22.0216 4.00936 22.7423 5.10784 23.1283 6.50829C23.8398 9.11421 23.9305 11.7843 23.691 14.5115C23.5538 16.0831 23.1888 17.5644 22.5168 18.9601C21.9239 20.1917 20.9985 20.974 19.7569 21.5042C18.3153 22.12 16.7482 22.2841 15.0973 22.3768C13.8325 22.4482 12.5653 22.4957 11.2981 22.5219C10.9795 22.529 10.668 22.6146 10.4471 22.781C10.2262 22.9475 10.1262 23.102 9.98903 23.2542C9.29149 24.0341 7.90107 25.406 7.14308 26.1573C7.13843 25.249 7.13145 24.1506 7.14308 23.1377C7.14773 22.8262 7.07797 22.5076 6.90359 22.2556C6.72921 22.0035 6.48972 21.8514 6.25953 21.742C5.58757 21.4234 4.70867 21.1809 4.32735 20.936C2.99505 20.08 2.23939 18.7961 1.79064 17.1983C1.20238 15.1083 1.09078 12.9565 1.26516 10.7667C1.35816 9.63016 1.5186 8.49126 1.72088 7.36187C2.14406 4.98183 3.47403 3.4839 5.58989 2.49003C6.92684 1.86233 8.35447 1.55323 9.85882 1.3654C10.8842 1.237 11.9096 1.19658 12.9373 1.22749ZM13.1884 4.26139C12.6978 4.26139 12.2212 4.31846 11.7585 4.42308C11.4399 4.49916 11.2376 4.8249 11.3097 5.15302C11.3818 5.48114 11.7026 5.68562 12.0235 5.61191C12.3979 5.52393 12.7885 5.47876 13.1884 5.47876C16.0948 5.47876 18.4385 7.87545 18.4385 10.8451C18.4385 11.2565 18.3944 11.6559 18.3083 12.0411C18.2363 12.3669 18.4362 12.695 18.7571 12.7687C19.0779 12.8424 19.3965 12.6355 19.4686 12.3074C19.5732 11.8366 19.629 11.3492 19.629 10.8451C19.629 7.21683 16.7389 4.26139 13.1884 4.26139ZM7.25003 5.48114C7.15238 5.47638 7.0524 5.48351 6.94777 5.50729C5.86658 5.75219 4.79238 6.55346 4.76215 7.98482C4.79238 8.18454 4.79005 8.39853 4.86213 8.57923C5.21555 9.46372 5.52247 10.3767 5.96424 11.2137C8.11498 15.2795 11.3678 18.1065 15.5135 19.9017C16.0088 20.1157 16.5203 20.1608 17.0202 19.9468C17.7084 19.6544 18.2921 19.2026 18.6803 18.5535C19.2128 17.6619 19.2198 17.0437 18.3432 16.3851C17.7689 15.9524 17.2039 15.5077 16.6226 15.0845C15.7367 14.4426 14.7788 14.3308 14.1185 15.4578C14.0836 15.5149 14.0324 15.5624 13.9882 15.61C13.6488 15.9785 13.2326 16.0689 12.7908 15.8834C11.1144 15.1773 9.8193 14.0384 9.03805 12.3431C8.57768 11.3468 8.70324 10.8475 9.56353 10.1842C9.64956 10.12 9.73094 10.051 9.81 9.9773C10.1867 9.62541 10.2866 9.20694 10.0634 8.73378C9.55888 7.65432 8.88692 6.69137 8.03593 5.86156C7.80574 5.63806 7.543 5.49778 7.25003 5.48114ZM13.1791 6.08744C12.9164 6.08744 12.656 6.10884 12.4002 6.15402C12.1839 6.18255 12.0003 6.32996 11.9212 6.53682C11.8422 6.74605 11.8817 6.98144 12.0212 7.15263C12.163 7.32145 12.3862 7.39991 12.6001 7.35236C12.7862 7.32145 12.9815 7.3048 13.1791 7.3048C15.1136 7.3048 16.6668 8.89309 16.6668 10.8713C16.6668 11.0734 16.6505 11.2731 16.6203 11.4633C16.5738 11.6821 16.6505 11.9103 16.8156 12.0554C16.983 12.198 17.2132 12.2385 17.4178 12.1576C17.6201 12.0768 17.7642 11.8889 17.7922 11.6678C17.8363 11.4063 17.8573 11.14 17.8573 10.8713C17.8573 8.23685 15.7553 6.08744 13.1791 6.08744ZM13.0954 7.91349C12.8815 7.91111 12.6815 8.02524 12.5722 8.21545C12.4653 8.40566 12.4653 8.63867 12.5722 8.82889C12.6815 9.0191 12.8815 9.13323 13.0954 9.13085C14.0882 9.13085 14.8811 9.94164 14.8811 10.9569C14.8788 11.1756 14.9904 11.3801 15.1764 11.4919C15.3624 11.6012 15.5903 11.6012 15.7763 11.4919C15.9623 11.3801 16.0739 11.1756 16.0716 10.9569C16.0716 9.28302 14.7323 7.91349 13.0954 7.91349Z" fill="white" fill-opacity="0.5"/>
</svg>
