<svg width="45" height="44" viewBox="0 0 45 44" fill="none" xmlns="http://www.w3.org/2000/svg">
<path d="M22.2282 -4.69989e-06C20.8 0.00746796 19.3677 0.0859311 17.9232 0.246593C15.1609 0.556708 12.4232 1.07232 9.79604 2.17454C5.61788 3.92688 2.65511 6.901 1.79575 11.2239C1.43154 13.0473 1.1369 14.8967 0.969117 16.7574C0.645831 20.3705 0.84635 23.9947 1.96762 27.5554C2.85154 30.3614 4.48024 32.8834 7.33252 34.52C8.53973 35.2112 10.1316 35.5474 10.9623 35.8987C11.1956 35.9995 11.2529 36.0593 11.2651 36.0743C11.2774 36.0855 11.3102 36.1116 11.3061 36.3358C11.2774 38.6224 11.3061 43.0463 11.3061 43.0463L11.3102 43.999H13.1803L13.4831 43.73C13.4831 43.73 18.2342 39.5565 19.9529 37.8378C20.2639 37.5314 20.4235 37.3596 20.4563 37.3409C20.4849 37.3222 20.4358 37.311 20.755 37.3035C23.0098 37.2624 25.2605 37.184 27.5113 37.0719C30.4781 36.9224 33.5023 36.6646 36.4118 35.5549C38.9449 34.5872 41.0606 33.0067 42.3415 30.6379C43.651 28.2093 44.3508 25.635 44.6127 22.971C45.0464 18.5359 44.895 14.0934 43.5528 9.71445C42.763 7.1476 41.1752 4.97679 38.7403 3.44489C35.8267 1.61409 32.5406 0.926605 29.3241 0.489455C27.4458 0.235384 25.5552 0.0672493 23.6564 0.0149406C23.1817 0.00373139 22.707 -0.00374079 22.2282 -4.69989e-06ZM23.5991 1.92794C25.4038 1.97278 27.2084 2.13344 29.0172 2.38004C32.1191 2.80224 35.045 3.44489 37.5536 5.02162C39.5874 6.29945 40.856 8.02563 41.5353 10.2263C42.7875 14.3214 42.9471 18.5173 42.5256 22.8028C42.2842 25.2725 41.6417 27.6003 40.459 29.7935C39.4155 31.7289 37.7868 32.9582 35.6016 33.7914C33.0644 34.7591 30.3063 35.0169 27.4008 35.1626C25.1746 35.2747 22.9443 35.3494 20.7141 35.3905C20.1534 35.4017 19.6051 35.5362 19.2163 35.7978C18.8276 36.0593 18.6516 36.3022 18.4102 36.5413C17.1825 37.7668 14.7353 39.9227 13.4013 41.1034C13.3931 39.6761 13.3808 37.9499 13.4013 36.3582C13.4095 35.8688 13.2867 35.3681 12.9798 34.972C12.6729 34.576 12.2514 34.3369 11.8462 34.165C10.6636 33.6643 9.11673 33.2832 8.4456 32.8984C6.10076 31.5533 4.77079 29.5357 3.98099 27.0249C2.94566 23.7406 2.74923 20.3593 3.05615 16.9181C3.21984 15.1321 3.5022 13.3424 3.85822 11.5677C4.60301 7.82761 6.94376 5.47372 10.6677 3.91193C13.0207 2.92554 15.5333 2.43982 18.181 2.14465C19.9857 1.94289 21.7903 1.87937 23.5991 1.92794ZM24.0411 6.6955C23.1776 6.6955 22.3387 6.78517 21.5243 6.94957C20.9637 7.06913 20.6077 7.58101 20.7345 8.09662C20.8614 8.61224 21.4261 8.93356 21.9909 8.81774C22.6497 8.67949 23.3372 8.6085 24.0411 8.6085C29.1563 8.6085 33.2813 12.3747 33.2813 17.0414C33.2813 17.6878 33.2035 18.3155 33.0521 18.9208C32.9253 19.4327 33.2772 19.9483 33.8419 20.0641C34.4067 20.1799 34.9673 19.8549 35.0941 19.3392C35.2783 18.5994 35.3765 17.8335 35.3765 17.0414C35.3765 11.3398 30.2899 6.6955 24.0411 6.6955ZM13.5895 8.61224C13.4177 8.60476 13.2417 8.61597 13.0575 8.65334C11.1547 9.03818 9.26405 10.2973 9.21085 12.5466C9.26405 12.8604 9.25996 13.1967 9.38682 13.4807C10.0088 14.8706 10.549 16.3053 11.3265 17.6205C15.1118 24.0097 20.8368 28.4522 28.1333 31.2731C29.0049 31.6094 29.9052 31.6803 30.785 31.3441C31.9963 30.8845 33.0235 30.1746 33.7069 29.1546C34.644 27.7535 34.6563 26.782 33.1135 25.7471C32.1027 25.067 31.1083 24.3683 30.0853 23.7033C28.5261 22.6945 26.8401 22.5189 25.6779 24.2899C25.6166 24.3796 25.5265 24.4543 25.4488 24.529C24.8513 25.1081 24.1188 25.2501 23.3413 24.9587C20.3908 23.849 18.1114 22.0593 16.7364 19.3953C15.9262 17.8298 16.1472 17.0451 17.6613 16.0027C17.8127 15.9018 17.9559 15.7935 18.0951 15.6776C18.758 15.1247 18.934 14.4671 18.5411 13.7235C17.6531 12.0272 16.4705 10.514 14.9727 9.21005C14.5676 8.85884 14.1051 8.63839 13.5895 8.61224ZM24.0247 9.565C23.5623 9.565 23.1039 9.59863 22.6538 9.66962C22.2732 9.71445 21.9499 9.94611 21.8108 10.2712C21.6717 10.6 21.7412 10.9699 21.9868 11.2389C22.2364 11.5042 22.6292 11.6275 23.0057 11.5527C23.3331 11.5042 23.6769 11.478 24.0247 11.478C27.4294 11.478 30.163 13.9739 30.163 17.0825C30.163 17.4001 30.1344 17.7139 30.0812 18.0128C29.9993 18.3566 30.1344 18.7153 30.4249 18.9432C30.7196 19.1674 31.1247 19.2309 31.4848 19.1039C31.8408 18.9768 32.0946 18.6816 32.1437 18.3342C32.2214 17.9232 32.2582 17.5047 32.2582 17.0825C32.2582 12.9426 28.5589 9.565 24.0247 9.565ZM23.8774 12.4345C23.5009 12.4308 23.149 12.6101 22.9566 12.909C22.7684 13.2079 22.7684 13.5741 22.9566 13.873C23.149 14.1719 23.5009 14.3512 23.8774 14.3475C25.6247 14.3475 27.0202 15.6216 27.0202 17.217C27.0161 17.5607 27.2125 17.8821 27.5399 18.0577C27.8673 18.2296 28.2683 18.2296 28.5957 18.0577C28.9231 17.8821 29.1195 17.5607 29.1154 17.217C29.1154 14.5866 26.7583 12.4345 23.8774 12.4345Z" fill="#34495E"/>
</svg>
