<svg width="27" height="27" viewBox="0 0 27 27" fill="none" xmlns="http://www.w3.org/2000/svg">
<path d="M13.5 0C6.0507 0 0 6.05068 0 13.5C0 15.8936 0.656887 18.1291 1.7517 20.0791L0.0217817 26.2548C-0.0343921 26.4554 0.020635 26.6721 0.166228 26.8211C0.310674 26.9713 0.525051 27.0332 0.727964 26.9827L7.16729 25.3869C9.05999 26.3969 11.2061 26.9999 13.5 26.9999C20.9493 26.9999 27 20.9492 27 13.5C27 6.05068 20.9493 0 13.5 0ZM13.5 1.17391C20.3142 1.17391 25.8261 6.68578 25.8261 13.5C25.8261 20.3141 20.3142 25.826 13.5 25.826C11.315 25.826 9.26979 25.2563 7.49057 24.2612C7.36103 24.189 7.20741 24.1683 7.06297 24.2039L1.42383 25.6013L2.93593 20.2064C2.97949 20.0528 2.95886 19.8865 2.87746 19.749C1.79641 17.9159 1.17391 15.7836 1.17391 13.5C1.17391 6.68578 6.6858 1.17391 13.5 1.17391ZM8.59456 6.4565C8.21854 6.4565 7.68088 6.59636 7.23951 7.07212C6.97469 7.35757 5.86957 8.43404 5.86957 10.3267C5.86957 12.2997 7.23837 14.0021 7.40345 14.221H7.40459V14.2222C7.38854 14.2016 7.61438 14.5283 7.91589 14.9203C8.21739 15.3124 8.63812 15.8271 9.16776 16.3843C10.2259 17.4986 11.7151 18.7871 13.5619 19.5747C14.4125 19.937 15.0832 20.1559 15.5922 20.3153C16.5345 20.6111 17.3932 20.5664 18.0374 20.4712C18.5201 20.4001 19.0509 20.1686 19.5759 19.8361C20.101 19.5036 20.6157 19.0909 20.8427 18.4627C21.0055 18.0122 21.088 17.5972 21.1178 17.2544C21.1327 17.0836 21.135 16.9323 21.1236 16.7924C21.1121 16.6526 21.1247 16.5459 20.994 16.3316C20.7212 15.8833 20.4116 15.8707 20.0884 15.7114C19.9084 15.6231 19.3982 15.3732 18.8858 15.129C18.3745 14.8848 17.9308 14.6693 17.658 14.5718C17.486 14.5099 17.2751 14.4205 16.9713 14.4549C16.6675 14.4893 16.3671 14.7083 16.1929 14.9674C16.0278 15.2127 15.3606 15.9991 15.1577 16.2307C15.1554 16.2295 15.1726 16.2376 15.0923 16.1974C14.8413 16.0736 14.5341 15.967 14.0789 15.7274C13.6238 15.4878 13.0552 15.1336 12.4327 14.5845V14.5833C11.5064 13.7671 10.8575 12.7433 10.6523 12.3994C10.6661 12.3834 10.6512 12.4029 10.6799 12.3742L10.681 12.3731C10.8908 12.1667 11.0754 11.9202 11.2324 11.7402C11.4548 11.4846 11.5523 11.2588 11.6589 11.0478C11.871 10.6271 11.7529 10.1651 11.6302 9.92206V9.92091C11.6382 9.93811 11.5637 9.77303 11.4835 9.58273C11.4032 9.39243 11.3001 9.1448 11.19 8.88113C10.9699 8.35379 10.7246 7.76225 10.579 7.41604V7.41489C10.407 7.00677 10.1743 6.7133 9.8705 6.57114C9.5667 6.42899 9.2973 6.46911 9.28698 6.46911H9.28584C9.06917 6.4588 8.83072 6.4565 8.59456 6.4565ZM8.59456 7.63041C8.8204 7.63041 9.04395 7.63271 9.23081 7.64188C9.4234 7.65105 9.41079 7.6522 9.37411 7.635C9.33628 7.6178 9.38787 7.61207 9.49677 7.87116C9.64007 8.21049 9.88655 8.80432 10.1067 9.33281C10.2167 9.59763 10.3199 9.84525 10.4024 10.0401C10.485 10.235 10.5297 10.3439 10.5813 10.4471V10.4483L10.5824 10.4494C10.6329 10.5491 10.6283 10.4849 10.6111 10.5205C10.4873 10.7658 10.4701 10.8266 10.3451 10.971C10.1548 11.1911 9.95992 11.4365 9.85674 11.5373C9.76618 11.6256 9.60453 11.7643 9.5025 12.0337C9.40048 12.3043 9.44862 12.6746 9.61141 12.952C9.82808 13.3211 10.5446 14.4859 11.6566 15.4649C12.357 16.0828 13.0093 16.4909 13.531 16.766C14.0526 17.0412 14.4767 17.2017 14.5719 17.2487C14.7977 17.3599 15.0442 17.447 15.3308 17.4126C15.6174 17.3782 15.865 17.204 16.0221 17.0263L16.0232 17.0251C16.233 16.7878 16.8555 16.0771 17.1536 15.6391C17.1662 15.6437 17.1616 15.6403 17.2613 15.6758V15.677H17.2625C17.3083 15.693 17.8758 15.9475 18.3814 16.1883C18.8869 16.429 19.4005 16.6801 19.5679 16.7626C19.8086 16.8818 19.9221 16.9598 19.9519 16.9598C19.9542 17.0114 19.9554 17.0675 19.9485 17.1524C19.9279 17.3885 19.8648 17.7141 19.7387 18.0638C19.6768 18.2346 19.3547 18.5877 18.9488 18.8445C18.543 19.1013 18.0489 19.2824 17.8655 19.3099C17.3152 19.3913 16.6618 19.4211 15.9441 19.1953C15.4466 19.0394 14.8264 18.8364 14.0228 18.4948C12.3937 17.8001 11.0089 16.617 10.0195 15.5761C9.52543 15.0556 9.12878 14.5707 8.84676 14.2039C8.5659 13.8382 8.44209 13.6478 8.34006 13.5126L8.33891 13.5114C8.15663 13.2707 7.04348 11.7219 7.04348 10.3267C7.04348 8.85018 7.72903 8.27125 8.10046 7.87116C8.29535 7.66137 8.50858 7.63041 8.59456 7.63041Z" fill="white" fill-opacity="0.5"/>
</svg>
