<svg width="45" height="44" viewBox="0 0 45 44" fill="none" xmlns="http://www.w3.org/2000/svg">
<path d="M22.83 0C10.6904 0 0.829956 9.86037 0.829956 21.9999C0.829956 25.9007 1.90044 29.5437 3.68458 32.7215L0.865452 42.7856C0.77391 43.1125 0.863583 43.4656 1.10085 43.7084C1.33624 43.9532 1.68559 44.0541 2.01627 43.9719L12.51 41.3713C15.5944 43.0172 19.0917 43.9999 22.83 43.9999C34.9696 43.9999 44.83 34.1395 44.83 21.9999C44.83 9.86037 34.9696 0 22.83 0ZM22.83 1.91304C33.9346 1.91304 42.9169 10.8954 42.9169 21.9999C42.9169 33.1045 33.9346 42.0868 22.83 42.0868C19.2692 42.0868 15.9363 41.1583 13.0368 39.5367C12.8257 39.4191 12.5754 39.3854 12.34 39.4433L3.15027 41.7207L5.61443 32.9289C5.68543 32.6786 5.6518 32.4077 5.51915 32.1835C3.75744 29.1963 2.743 25.7214 2.743 21.9999C2.743 10.8954 11.7253 1.91304 22.83 1.91304ZM14.8359 10.5217C14.2231 10.5217 13.3469 10.7496 12.6277 11.5249C12.1961 11.9901 10.3952 13.7444 10.3952 16.8288C10.3952 20.0439 12.6258 22.8182 12.8948 23.175H12.8967V23.1769C12.8705 23.1433 13.2386 23.6757 13.7299 24.3146C14.2213 24.9536 14.9069 25.7924 15.77 26.7003C17.4944 28.5162 19.9212 30.6161 22.9308 31.8995C24.317 32.4899 25.4099 32.8467 26.2394 33.1064C27.7751 33.5884 29.1744 33.5155 30.2243 33.3605C31.0108 33.2446 31.8758 32.8673 32.7315 32.3255C33.5871 31.7837 34.4259 31.1112 34.7958 30.0874C35.0611 29.3532 35.1956 28.6769 35.2442 28.1183C35.2685 27.8399 35.2722 27.5933 35.2535 27.3654C35.2348 27.1375 35.2554 26.9638 35.0424 26.6144C34.5978 25.8839 34.0934 25.8634 33.5665 25.6037C33.2732 25.4599 32.4419 25.0526 31.6068 24.6547C30.7736 24.2567 30.0506 23.9055 29.6059 23.7467C29.3257 23.6458 28.982 23.5001 28.4869 23.5562C27.9918 23.6122 27.5023 23.969 27.2184 24.3912C26.9494 24.791 25.8621 26.0726 25.5314 26.45C25.5276 26.4481 25.5557 26.4612 25.4249 26.3958C25.0158 26.1941 24.5151 26.0203 23.7734 25.6299C23.0317 25.2394 22.1051 24.6621 21.0907 23.7673V23.7654C19.5811 22.4352 18.5237 20.7669 18.1893 20.2065C18.2117 20.1803 18.1875 20.2121 18.2342 20.1654L18.236 20.1635C18.5779 19.8272 18.8787 19.4256 19.1346 19.1323C19.4971 18.7156 19.6559 18.3476 19.8296 18.0039C20.1752 17.3182 19.9828 16.5653 19.7829 16.1693V16.1674C19.796 16.1954 19.6746 15.9264 19.5438 15.6163C19.413 15.3062 19.2449 14.9026 19.0655 14.473C18.7068 13.6136 18.307 12.6496 18.0698 12.0854V12.0835C17.7895 11.4184 17.4103 10.9402 16.9152 10.7085C16.4201 10.4769 15.9811 10.5423 15.9643 10.5423H15.9624C15.6093 10.5254 15.2208 10.5217 14.8359 10.5217ZM14.8359 12.4347C15.2039 12.4347 15.5682 12.4385 15.8728 12.4534C16.1866 12.4684 16.1661 12.4702 16.1063 12.4422C16.0446 12.4142 16.1287 12.4049 16.3062 12.8271C16.5397 13.3801 16.9414 14.3478 17.3001 15.209C17.4794 15.6406 17.6476 16.0441 17.7821 16.3617C17.9166 16.6793 17.9894 16.8568 18.0735 17.0249V17.0268L18.0754 17.0287C18.1576 17.1912 18.1501 17.0866 18.1221 17.1445C17.9203 17.5443 17.8923 17.6433 17.6887 17.8787C17.3785 18.2374 17.0609 18.6372 16.8928 18.8016C16.7452 18.9454 16.4818 19.1715 16.3155 19.6105C16.1492 20.0514 16.2277 20.6548 16.493 21.1069C16.8461 21.7085 18.0137 23.6066 19.8259 25.202C20.9674 26.209 22.0304 26.8741 22.8804 27.3224C23.7304 27.7708 24.4217 28.0324 24.5767 28.109C24.9448 28.2902 25.3464 28.4322 25.8135 28.3761C26.2805 28.3201 26.6841 28.0361 26.94 27.7465L26.9419 27.7447C27.2838 27.3579 28.2982 26.1997 28.7839 25.486C28.8045 25.4935 28.797 25.4879 28.9595 25.5458V25.5477H28.9614C29.0361 25.5738 29.9609 25.9886 30.7848 26.3809C31.6087 26.7732 32.4456 27.1823 32.7184 27.3168C33.1107 27.5111 33.2956 27.6382 33.3442 27.6382C33.348 27.7222 33.3498 27.8138 33.3386 27.952C33.305 28.3369 33.2022 28.8675 32.9967 29.4373C32.8959 29.7156 32.3709 30.291 31.7095 30.7095C31.0482 31.128 30.243 31.4231 29.9441 31.468C29.0473 31.6006 27.9825 31.6492 26.813 31.2812C26.0022 31.0271 24.9915 30.6964 23.6819 30.1397C21.0271 29.0076 18.7703 27.0796 17.1581 25.3833C16.3529 24.5351 15.7065 23.7448 15.2469 23.147C14.7892 22.5511 14.5874 22.2409 14.4212 22.0205L14.4193 22.0186C14.1222 21.6263 12.3082 19.1024 12.3082 16.8288C12.3082 14.4225 13.4254 13.4791 14.0307 12.8271C14.3483 12.4852 14.6958 12.4347 14.8359 12.4347Z" fill="#34495E"/>
</svg>
