<svg width="377" height="724" viewBox="0 0 377 724" fill="none" xmlns="http://www.w3.org/2000/svg">
<path d="M166.375 179.648C164.907 174.746 165.983 173.578 158.644 168.442C155.904 166.458 43.2763 65.3708 28.5006 51.7135C27.2285 50.5462 26.6414 48.4451 27.2285 46.344C27.522 45.2935 27.9135 44.5931 28.6963 45.06C30.5555 45.9938 175.768 127.937 166.766 155.369C166.57 155.952 166.472 156.536 166.472 157.12C166.375 159.804 166.864 166.108 173.42 168.442C181.64 171.594 167.157 182.567 166.375 179.648Z" fill="white"/>
<path d="M219.176 219.122C219.176 219.122 237.498 220.189 242.233 215.803C246.968 211.418 254.894 198.144 252.732 195.181C250.57 192.337 226.175 161.877 183.149 168.87L178.62 196.722C178.62 196.722 190.354 218.055 219.176 219.122Z" fill="#E2E2E2"/>
<path d="M188.09 166.974L168.121 167.566C161.842 167.803 158.342 176.574 162.666 181.314L176.973 197.077C177.282 197.433 177.488 197.67 177.797 198.026C178.414 198.855 179.238 199.448 180.164 199.922C185.105 202.055 192.105 196.603 195.707 187.596C199.31 178.588 198.178 169.463 193.134 167.329C192.207 166.974 191.178 166.855 190.149 166.974C189.531 166.974 188.811 166.974 188.09 166.974Z" fill="white"/>
<path opacity="0.85" d="M161.637 171.853C165.936 169.704 183.813 187.929 182.547 189.318C182.547 189.318 184.294 188.647 185.487 184.624C186.68 180.601 186.248 179.931 186.248 179.931C186.248 179.931 181.539 174.299 175.131 172.31C168.722 170.321 161.637 171.853 161.637 171.853Z" fill="url(#paint0_linear)"/>
<path d="M193.096 181.356C191.963 181.593 190.625 178.63 190.214 174.6C189.699 170.689 190.317 167.252 191.449 166.896C192.581 166.659 193.919 169.622 194.331 173.533C194.743 177.681 194.228 181.118 193.096 181.356Z" fill="#848484"/>
<path d="M190.728 177.8C190.523 176.852 190.317 175.785 190.111 174.718C190.008 173.652 189.905 172.466 189.905 171.518C189.905 169.029 190.42 167.252 191.243 167.015L187.435 167.963C186.405 168.437 185.891 171.755 186.405 175.548C186.817 179.341 188.052 182.304 189.184 182.304L192.993 181.355C192.272 181.592 191.346 180.052 190.728 177.8Z" fill="#E2E2E2"/>
<path d="M193.349 166.781C197.379 167.375 197.631 168.921 204.936 163.571C207.622 161.55 349.601 79.0393 371.011 66.9125C372.942 65.8425 375.041 66.0802 376.384 67.7447C377.056 68.5769 377.308 69.4092 376.468 70.1226C374.285 72.0248 223.995 198.406 209.721 177.362C209.385 176.886 209.05 176.53 208.63 176.292C206.867 175.103 202.333 172.963 197.379 178.551C191.082 185.684 190.914 166.424 193.349 166.781Z" fill="white"/>
<path d="M174.937 193.691C175.763 193.812 176.588 193.933 177.506 194.298C178.331 194.662 179.157 195.026 179.799 195.512C181.45 196.727 182.459 198.427 182.001 199.763L183.927 193.569C184.294 191.747 182.276 189.44 179.34 188.347C176.405 187.254 173.561 187.618 172.827 189.319L170.901 195.512C171.268 194.176 172.919 193.569 174.937 193.691Z" fill="#E2E2E2"/>
<path d="M182.125 197.579C178.613 201.458 177.27 201.027 176.031 210.616C175.617 214.172 137.194 376.542 131.72 398.845C131.204 400.784 129.654 402.4 127.692 402.723C126.762 402.939 125.936 402.723 125.936 401.754C126.039 399.276 136.058 214.926 161.88 209.647C162.397 209.539 163.016 209.323 163.533 209C165.702 207.707 170.763 204.152 170.04 196.825C169.11 187.451 184.19 195.317 182.125 197.579Z" fill="white"/>
<path d="M216.484 209.302L196.236 211.238L185.033 904.239C184.827 914.954 194.386 920.118 206.412 922.183C218.54 924.249 228.304 922.312 228.099 911.339L216.484 209.302Z" fill="#E8E8E8"/>
<path d="M334.51 182.653C330.469 274.705 254.056 345.968 163.858 341.846C73.6589 337.725 3.79631 259.777 7.8371 167.726C11.8779 75.6745 88.2903 4.41114 178.489 8.53272C268.688 12.6543 338.55 90.6016 334.51 182.653Z" stroke="url(#paint1_linear)" stroke-opacity="0.5"/>
<defs>
<linearGradient id="paint0_linear" x1="181.929" y1="172.514" x2="162.164" y2="169.698" gradientUnits="userSpaceOnUse">
<stop/>
<stop offset="0.0825" stop-color="#040404"/>
<stop offset="0.1563" stop-color="#0E0E0E"/>
<stop offset="0.2268" stop-color="#212121"/>
<stop offset="0.2954" stop-color="#3A3A3A"/>
<stop offset="0.3625" stop-color="#5C5C5C"/>
<stop offset="0.4285" stop-color="#848484"/>
<stop offset="0.4936" stop-color="#B5B5B5"/>
<stop offset="0.5565" stop-color="#EBEBEB"/>
<stop offset="0.5774" stop-color="white"/>
<stop offset="1"/>
</linearGradient>
<linearGradient id="paint1_linear" x1="19.7213" y1="113.63" x2="335.166" y2="193.867" gradientUnits="userSpaceOnUse">
<stop stop-color="white"/>
<stop offset="1" stop-color="white" stop-opacity="0"/>
</linearGradient>
</defs>
</svg>
