<svg width="88" height="563" viewBox="0 0 88 563" fill="none" xmlns="http://www.w3.org/2000/svg">
<path d="M55.6452 52.3435C55.6452 52.3435 72.868 53.3927 77.3188 49.0796C81.7697 44.7666 89.22 31.7108 87.1881 28.7966C85.1562 25.9989 62.2247 -3.95923 21.7801 2.91834L17.5227 30.312C17.5227 30.312 28.5531 51.2944 55.6452 52.3435Z" fill="#E2E2E2"/>
<path d="M26.4247 1.05318L7.65374 1.63606C1.75154 1.86919 -1.5382 10.4953 2.52561 15.158L15.9749 30.6617C16.2651 31.0114 16.4587 31.2446 16.7489 31.5943C17.3295 32.4103 18.1035 32.9931 18.9743 33.4593C23.6187 35.5576 30.1982 30.1954 33.5847 21.3362C36.9712 12.4769 35.9069 3.50111 31.1658 1.40287C30.295 1.05316 29.3274 0.936607 28.3598 1.05318C27.7793 1.05318 27.102 1.05318 26.4247 1.05318Z" fill="white"/>
<path opacity="0.85" d="M1.55891 5.85248C5.59938 3.73894 22.4044 21.6637 21.2143 23.0302C21.2143 23.0302 22.8563 22.3698 23.978 18.4131C25.0996 14.4563 24.6936 13.7978 24.6936 13.7978C24.6936 13.7978 20.2666 8.25827 14.2427 6.30187C8.21889 4.34547 1.55891 5.85248 1.55891 5.85248Z" fill="url(#paint0_linear)"/>
<path d="M31.13 15.1985C30.0656 15.4316 28.8078 12.5174 28.4208 8.55406C27.937 4.70728 28.5176 1.32676 29.5819 0.977056C30.6462 0.743918 31.9041 3.65812 32.2911 7.50489C32.6781 11.5848 32.1943 14.9654 31.13 15.1985Z" fill="#848484"/>
<path d="M28.9048 11.7012C28.7112 10.7687 28.5178 9.7196 28.3242 8.67047C28.2275 7.62134 28.1307 6.45559 28.1307 5.52303C28.1307 3.07506 28.6144 1.32655 29.3885 1.09341L25.8085 2.02599C24.8409 2.49227 24.3572 5.75622 24.841 9.48646C25.228 13.2167 26.3891 16.1309 27.4534 16.1309L31.0334 15.1984C30.3561 15.4315 29.4853 13.9161 28.9048 11.7012Z" fill="#E2E2E2"/>
<path d="M14.061 27.3306C14.8371 27.45 15.6132 27.5694 16.4755 27.9277C17.2515 28.2861 18.0276 28.6445 18.6312 29.1223C20.1834 30.3167 21.1319 31.989 20.7007 33.3029L22.5116 27.2111C22.8565 25.4194 20.9594 23.1499 18.2001 22.0749C15.4407 20.9999 12.7676 21.3583 12.0777 23.0305L10.2669 29.1223C10.6118 27.8084 12.164 27.2111 14.061 27.3306Z" fill="#E2E2E2"/>
<path d="M53.1153 42.6848L34.0819 44.5894L23.5508 726.191C23.3576 736.729 32.3429 741.808 43.647 743.84C55.0476 745.872 64.2262 743.967 64.0329 733.174L53.1153 42.6848Z" fill="#E8E8E8"/>
<defs>
<linearGradient id="paint0_linear" x1="20.6336" y1="6.50226" x2="2.02167" y2="3.96842" gradientUnits="userSpaceOnUse">
<stop/>
<stop offset="0.0825" stop-color="#040404"/>
<stop offset="0.1563" stop-color="#0E0E0E"/>
<stop offset="0.2268" stop-color="#212121"/>
<stop offset="0.2954" stop-color="#3A3A3A"/>
<stop offset="0.3625" stop-color="#5C5C5C"/>
<stop offset="0.4285" stop-color="#848484"/>
<stop offset="0.4936" stop-color="#B5B5B5"/>
<stop offset="0.5565" stop-color="#EBEBEB"/>
<stop offset="0.5774" stop-color="white"/>
<stop offset="1"/>
</linearGradient>
</defs>
</svg>
