<svg width="412" height="412" viewBox="0 0 412 412" fill="none" xmlns="http://www.w3.org/2000/svg">
<path d="M201.749 182.681C197.953 187.008 196.501 186.528 195.161 197.226C194.714 201.193 153.172 382.342 147.254 407.224C146.695 409.388 145.02 411.191 142.898 411.552C141.893 411.792 141 411.552 141 410.47C141.112 407.705 151.944 202.034 179.862 196.144C180.42 196.024 181.09 195.783 181.649 195.423C183.994 193.98 189.466 190.013 188.684 181.84C187.679 171.382 203.983 180.157 201.749 182.681Z" fill="white"/>
<path d="M185.876 173.299C184.347 167.642 185.491 166.574 177.525 159.875C174.546 157.436 49.469 26.9303 32.3991 8.81186C30.9375 7.19677 30.3489 4.75548 31.1608 2.64943C31.4891 1.61614 32.1486 0.930562 33.0246 1.48533C35.2053 3.00416 196.117 118.278 186.361 146.577C186.168 147.144 186.014 147.874 186.016 148.565C185.964 151.428 186.329 158.416 193.355 161.9C202.346 166.353 186.758 176.615 185.876 173.299Z" fill="white"/>
<path d="M201.678 166.389C206.962 167.503 207.312 169.01 216.349 164.758C219.674 163.138 382.116 107.553 404.535 100.103C406.506 99.493 408.754 100.038 410.098 101.703C410.789 102.456 411.047 103.356 410.201 103.904C407.984 105.207 241.731 199.953 223.157 178.628C222.784 178.202 222.261 177.741 221.699 177.437C219.398 176.126 213.558 173.371 207.557 178.192C199.882 184.364 198.587 165.723 201.678 166.389Z" fill="white"/>
</svg>
